<svg width="5" height="5" viewBox="0 0 5 5" fill="none" xmlns="http://www.w3.org/2000/svg">
<g id="Group 208">
<g id="Group 197">
<g id="Group 85">
<path id="Vector 155 (Stroke)" fill-rule="evenodd" clip-rule="evenodd" d="M2.00318 0.0765562C2.10415 0.178059 2.10349 0.341976 2.00172 0.442674L0.889779 1.54289L3.37046 1.54289C4.43872 1.54289 4.98131 2.44169 4.99951 3.26574C5.00873 3.68334 4.88892 4.11427 4.6167 4.44585C4.33911 4.78398 3.9177 5 3.37046 5H2.5359C2.39254 5 2.27632 4.88409 2.27632 4.74111C2.27632 4.59813 2.39254 4.48223 2.5359 4.48223H3.37046C3.76869 4.48223 4.04016 4.33083 4.21503 4.11783C4.39526 3.89829 4.48749 3.59438 4.48049 3.27714C4.46624 2.63153 4.06336 2.06066 3.37046 2.06066H0.882915L2.00314 3.18637C2.10413 3.28785 2.10351 3.45177 2.00176 3.55249C1.90001 3.65321 1.73566 3.65259 1.63468 3.55111L0.0753377 1.98415C0.0268351 1.93541 -0.000264599 1.86944 1.94781e-06 1.80077C0.000268479 1.7321 0.0278794 1.66635 0.0767589 1.61799L1.6361 0.075099C1.73787 -0.0255993 1.90222 -0.0249469 2.00318 0.0765562Z" fill="white"/>
</g>
</g>
</g>
</svg>
