<svg width="6" height="5" viewBox="0 0 6 5" fill="none" xmlns="http://www.w3.org/2000/svg">
<g id="Group 208">
<path id="Vector 149 (Stroke)" fill-rule="evenodd" clip-rule="evenodd" d="M0 0.281267C0 0.125927 0.129219 0 0.288619 0H3.60023C3.75963 0 3.88885 0.125927 3.88885 0.281267C3.88885 0.436606 3.75963 0.562533 3.60023 0.562533H0.288619C0.129219 0.562533 0 0.436606 0 0.281267ZM4.18091 0.281267C4.18091 0.125927 4.31013 0 4.46953 0H5.71138C5.87078 0 6 0.125927 6 0.281267C6 0.436606 5.87078 0.562533 5.71138 0.562533H4.46953C4.31013 0.562533 4.18091 0.436606 4.18091 0.281267ZM0 1.77387C0 1.61853 0.129219 1.4926 0.288619 1.4926H0.909546C1.06895 1.4926 1.19816 1.61853 1.19816 1.77387C1.19816 1.92921 1.06895 2.05514 0.909546 2.05514H0.288619C0.129219 2.05514 0 1.92921 0 1.77387ZM1.53162 1.77387C1.53162 1.61853 1.66084 1.4926 1.82024 1.4926H3.31046C3.46986 1.4926 3.59908 1.61853 3.59908 1.77387C3.59908 1.92921 3.46986 2.05514 3.31046 2.05514H1.82024C1.66084 2.05514 1.53162 1.92921 1.53162 1.77387ZM3.93254 1.77387C3.93254 1.61853 4.06176 1.4926 4.22116 1.4926H5.71138C5.87078 1.4926 6 1.61853 6 1.77387C6 1.92921 5.87078 2.05514 5.71138 2.05514H4.22116C4.06176 2.05514 3.93254 1.92921 3.93254 1.77387ZM0 3.22613C0 3.07079 0.129219 2.94486 0.288619 2.94486H1.57187C1.73127 2.94486 1.86049 3.07079 1.86049 3.22613C1.86049 3.38147 1.73127 3.5074 1.57187 3.5074H0.288619C0.129219 3.5074 0 3.38147 0 3.22613ZM2.19394 3.22613C2.19394 3.07079 2.32316 2.94486 2.48256 2.94486H5.71138C5.87078 2.94486 6 3.07079 6 3.22613C6 3.38147 5.87078 3.5074 5.71138 3.5074H2.48256C2.32316 3.5074 2.19394 3.38147 2.19394 3.22613ZM0 4.71873C0 4.56339 0.129219 4.43747 0.288619 4.43747H3.39325C3.55265 4.43747 3.68187 4.56339 3.68187 4.71873C3.68187 4.87407 3.55265 5 3.39325 5H0.288619C0.129219 5 0 4.87407 0 4.71873Z" fill="white"/>
</g>
</svg>
