<svg width="6" height="6" viewBox="0 0 6 6" fill="none" xmlns="http://www.w3.org/2000/svg">
<g id="Group 208">
<g id="Group 209">
<g id="Group 41">
<g id="Group 212">
<path id="Vector 155 (Stroke)" fill-rule="evenodd" clip-rule="evenodd" d="M6 5.68336C6 5.85823 5.85824 6 5.68336 6H3.74194C3.56707 6 3.4253 5.85823 3.4253 5.68336C3.4253 5.50848 3.56707 5.36671 3.74194 5.36671H4.91894L3.25919 3.70692C3.13553 3.58326 3.13553 3.38278 3.25919 3.25912C3.38284 3.13546 3.58333 3.13546 3.70698 3.25912L5.36673 4.91891V3.74188C5.36673 3.567 5.50849 3.42524 5.68336 3.42524C5.85824 3.42524 6 3.567 6 3.74188V5.68336Z" fill="white"/>
<path id="Vector 155 (Stroke)_2" fill-rule="evenodd" clip-rule="evenodd" d="M0 0.316644C0 0.141766 0.141763 0 0.316636 0L2.25806 0C2.43293 0 2.5747 0.141766 2.5747 0.316644C2.5747 0.491522 2.43293 0.633288 2.25806 0.633288H1.08106L2.74081 2.29308C2.86447 2.41674 2.86447 2.61722 2.74081 2.74088C2.61716 2.86454 2.41667 2.86454 2.29302 2.74088L0.633272 1.08109V2.25812C0.633272 2.433 0.491509 2.57476 0.316636 2.57476C0.141763 2.57476 0 2.433 0 2.25812L0 0.316644Z" fill="white"/>
</g>
</g>
</g>
</g>
</svg>
