<svg width="45" height="45" viewBox="0 0 45 45" fill="none" xmlns="http://www.w3.org/2000/svg">
<g id="Rectangle 93" opacity="0.77">
<path d="M0 22.5C0 10.0736 10.0736 0 22.5 0C34.9264 0 45 10.0736 45 22.5C45 34.9264 34.9264 45 22.5 45C10.0736 45 0 34.9264 0 22.5Z" fill="url(#paint0_radial_731_3062)"/>
<path d="M0 22.5C0 10.0736 10.0736 0 22.5 0C34.9264 0 45 10.0736 45 22.5C45 34.9264 34.9264 45 22.5 45C10.0736 45 0 34.9264 0 22.5Z" fill="url(#paint1_radial_731_3062)"/>
<path d="M0 22.5C0 10.0736 10.0736 0 22.5 0C34.9264 0 45 10.0736 45 22.5C45 34.9264 34.9264 45 22.5 45C10.0736 45 0 34.9264 0 22.5Z" fill="#5E5E5E" fill-opacity="0.18"/>
<path d="M0 22.5C0 10.0736 10.0736 0 22.5 0C34.9264 0 45 10.0736 45 22.5C45 34.9264 34.9264 45 22.5 45C10.0736 45 0 34.9264 0 22.5Z" fill="white" fill-opacity="0.06"/>
</g>
<defs>
<radialGradient id="paint0_radial_731_3062" cx="0" cy="0" r="1" gradientUnits="userSpaceOnUse" gradientTransform="translate(-2.68221e-06 47) rotate(90) scale(22.5)">
<stop stop-color="#5E5E5E" stop-opacity="0.14"/>
<stop offset="0.74" stop-color="#5E5E5E" stop-opacity="0"/>
</radialGradient>
<radialGradient id="paint1_radial_731_3062" cx="0" cy="0" r="1" gradientUnits="userSpaceOnUse" gradientTransform="translate(-2.68221e-06 47) rotate(90) scale(22.5)">
<stop stop-color="white" stop-opacity="0.07"/>
<stop offset="0.56" stop-color="white" stop-opacity="0"/>
</radialGradient>
</defs>
</svg>
