<svg width="6" height="6" viewBox="0 0 6 6" fill="none" xmlns="http://www.w3.org/2000/svg">
<g id="Group 208">
<g id="Group 197">
<g id="Group 213">
<g id="Group 195">
<path id="Vector 183 (Stroke)" fill-rule="evenodd" clip-rule="evenodd" d="M3.11523 3.48047C3.11523 3.30653 3.25868 3.16553 3.43563 3.16553H5.41458C5.59153 3.16553 5.73498 3.30653 5.73498 3.48047C5.73498 3.6544 5.59153 3.79541 5.41458 3.79541H4.20915L5.905 5.46235C6.03012 5.58534 6.03012 5.78475 5.905 5.90774C5.77987 6.03073 5.57701 6.03073 5.45188 5.90774L3.75604 4.2408V5.42568C3.75604 5.59962 3.61259 5.74062 3.43563 5.74062C3.25868 5.74062 3.11523 5.59962 3.11523 5.42568V3.48047Z" fill="white"/>
<g id="Group 42">
<path id="Vector 155 (Stroke)" fill-rule="evenodd" clip-rule="evenodd" d="M2.88281 2.51953C2.88281 2.69347 2.73936 2.83447 2.56241 2.83447L0.583468 2.83447C0.406515 2.83447 0.263067 2.69347 0.263067 2.51953C0.263067 2.3456 0.406515 2.20459 0.583468 2.20459H1.7889L0.0930507 0.537652C-0.0320733 0.41466 -0.0320733 0.215251 0.0930507 0.0922596C0.218175 -0.0307322 0.421041 -0.0307322 0.546166 0.0922596L2.24201 1.7592L2.24201 0.574318C2.24201 0.400381 2.38546 0.259378 2.56241 0.259378C2.73936 0.259378 2.88281 0.400381 2.88281 0.574318L2.88281 2.51953Z" fill="white"/>
</g>
</g>
</g>
</g>
</g>
</svg>
